<?xml version="1.0" encoding="UTF-8" standalone="no"?>
<!-- Uploaded to: SVG Repo, www.svgrepo.com, Generator: SVG Repo Mixer Tools -->

<svg
   width="512.00128"
   height="511.9993"
   viewBox="0 0 46.720117 46.719936"
   version="1.1"
   id="svg1"
   sodipodi:docname="lattes_cmf.svg"
   inkscape:version="1.3 (0e150ed6c4, 2023-07-21)"
   xmlns:inkscape="http://www.inkscape.org/namespaces/inkscape"
   xmlns:sodipodi="http://sodipodi.sourceforge.net/DTD/sodipodi-0.dtd"
   xmlns="http://www.w3.org/2000/svg"
   xmlns:svg="http://www.w3.org/2000/svg"
   xmlns:rdf="http://www.w3.org/1999/02/22-rdf-syntax-ns#"
   xmlns:cc="http://creativecommons.org/ns#"
   xmlns:dc="http://purl.org/dc/elements/1.1/">
  <sodipodi:namedview
     id="namedview1"
     pagecolor="#ffffff"
     bordercolor="#999999"
     borderopacity="1"
     inkscape:showpageshadow="0"
     inkscape:pageopacity="0"
     inkscape:pagecheckerboard="0"
     inkscape:deskcolor="#d1d1d1"
     inkscape:zoom="0.70710678"
     inkscape:cx="147.78532"
     inkscape:cy="370.52395"
     inkscape:window-width="1920"
     inkscape:window-height="991"
     inkscape:window-x="-9"
     inkscape:window-y="-9"
     inkscape:window-maximized="1"
     inkscape:current-layer="svg1" />
  <title
     id="title1">team-collaboration/version-control/github</title>
  <desc
     id="desc1">Created with Sketch.</desc>
  <defs
     id="defs1" />
  <g
     id="team-collaboration/version-control/github"
     stroke="none"
     stroke-width="1"
     fill="none"
     fill-rule="evenodd"
     transform="scale(0.64000164)">
    <g
       id="container"
       transform="translate(2,2)"
       fill-rule="nonzero"
       style="fill:#000000">
      <rect
         id="mask"
         stroke="#000000"
         stroke-width="2"
         fill="#000000"
         x="-1"
         y="-1"
         width="71"
         height="71"
         rx="14"
         style="fill:#000000" />
      <path
         d="M 58.306736,21.42818 C 55.895743,17.297227 52.625385,14.026745 48.4948,11.615998 44.363601,9.2051277 39.853564,8 34.96149,8 30.070031,8 25.558518,9.2054966 21.42818,11.615998 17.297227,14.026622 14.026991,17.297227 11.615998,21.42818 9.2053737,25.55901 8,30.069908 8,34.960752 c 0,5.875013 1.7140578,11.157976 5.143034,15.85024 3.428608,4.692633 7.857861,7.939752 13.287391,9.741726 0.632013,0.117303 1.099874,0.0348 1.404077,-0.245428 0.304325,-0.280594 0.456303,-0.632013 0.456303,-1.052781 0,-0.07021 -0.006,-0.701853 -0.01771,-1.895669 -0.01205,-1.193815 -0.01771,-2.235284 -0.01771,-3.123913 l -0.807477,0.139682 c -0.514832,0.09431 -1.164305,0.134272 -1.948419,0.12296 -0.783745,-0.01094 -1.597369,-0.09308 -2.439765,-0.245797 C 22.216966,54.100409 21.433098,53.749359 20.707513,53.19936 19.982297,52.649362 19.467465,51.929433 19.16314,51.04068 L 18.81209,50.232835 C 18.578098,49.69501 18.20971,49.097549 17.706436,48.442665 17.203162,47.787168 16.694232,47.342791 16.1794,47.108799 l -0.245796,-0.175955 c -0.163782,-0.116935 -0.315761,-0.25797 -0.456303,-0.421629 -0.14042,-0.163659 -0.245551,-0.327442 -0.315761,-0.49147 -0.07033,-0.164151 -0.01205,-0.298792 0.175464,-0.404414 0.187513,-0.105623 0.52639,-0.156897 1.018106,-0.156897 l 0.701853,0.104885 c 0.468108,0.09382 1.047125,0.374043 1.73779,0.842397 0.690295,0.467984 1.257754,1.076388 1.702499,1.824967 0.538563,0.959823 1.187422,1.691187 1.948419,2.194461 0.760383,0.503274 1.527036,0.754481 2.299223,0.754481 0.772187,0 1.43912,-0.05853 2.001046,-0.174972 0.56131,-0.117057 1.087947,-0.293013 1.579662,-0.526882 0.21063,-1.56872 0.784114,-2.773847 1.71996,-3.616244 -1.333866,-0.140174 -2.533092,-0.351296 -3.598291,-0.632013 -1.064585,-0.281086 -2.164705,-0.737266 -3.299623,-1.36977 -1.135533,-0.631644 -2.077527,-1.416004 -2.826228,-2.351727 -0.748825,-0.936215 -1.363377,-2.16532 -1.842797,-3.686208 -0.479666,-1.521503 -0.71956,-3.276629 -0.71956,-5.265871 0,-2.832376 0.924657,-5.242631 2.773601,-7.232119 -0.866127,-2.129416 -0.784359,-4.516555 0.245551,-7.161171 0.678737,-0.210876 1.685285,-0.05263 3.019152,0.473763 1.334112,0.526637 2.310904,0.977776 2.931358,1.351819 0.620455,0.37392 1.117581,0.690787 1.492116,0.947773 2.177001,-0.608281 4.423597,-0.912484 6.740403,-0.912484 2.316806,0 4.563894,0.304203 6.741018,0.912484 l 1.33399,-0.842151 c 0.912237,-0.561925 1.989487,-1.07688 3.229167,-1.544988 1.240417,-0.467861 2.188928,-0.596723 2.844549,-0.385847 1.05278,2.644739 1.146599,5.031755 0.280225,7.161171 1.848821,1.989487 2.773847,4.400358 2.773847,7.232119 0,1.989242 -0.240755,3.749901 -0.719683,5.283085 -0.479543,1.53343 -1.099382,2.761306 -1.859765,3.686208 -0.761243,0.92478 -1.709262,1.702992 -2.84418,2.334512 -1.135164,0.632013 -2.235653,1.088194 -3.300238,1.369279 -1.065076,0.281086 -2.264302,0.492331 -3.598169,0.632751 1.216563,1.052781 1.824968,2.714581 1.824968,4.984662 v 7.406722 c 0,0.420768 0.146322,0.772064 0.439212,1.05278 0.292521,0.280225 0.75448,0.362731 1.386493,0.245305 5.430268,-1.801728 9.859521,-5.04897 13.288006,-9.741603 3.428115,-4.692264 5.142788,-9.975226 5.142788,-15.850239 -0.0012,-4.890229 -1.207218,-9.400759 -3.616736,-13.531589 z"
         id="Shape"
         fill="#FFFFFF"
         style="fill:#000000" />
    </g>
  </g>
  <metadata
     id="metadata1">
    <rdf:RDF>
      <cc:Work
         rdf:about="">
        <dc:title>team-collaboration/version-control/github</dc:title>
      </cc:Work>
    </rdf:RDF>
  </metadata>
  <path
     d="m 35.214878,15.084942 c 0.210817,0.160315 0.409834,0.334399 0.603276,0.514714 0.06917,0.06261 0.139348,0.124254 0.209836,0.185562 0.133116,0.116055 0.262621,0.23539 0.390162,0.357348 0.02265,0.02124 0.04523,0.04263 0.06852,0.06425 0.267543,0.252441 0.531145,0.504881 0.770489,0.786827 0.05902,0.06687 0.121312,0.129498 0.184914,0.192117 0.103282,0.101959 0.199671,0.207523 0.294099,0.318008 0.0659,0.07475 0.134099,0.146874 0.202951,0.219 0.239344,0.253095 0.4459,0.524551 0.649179,0.806498 0.01475,0.02036 0.02958,0.04065 0.0449,0.06164 0.167539,0.230473 0.331147,0.462259 0.485243,0.701587 0.03638,0.05475 0.07311,0.109171 0.110815,0.163264 0.136394,0.195396 0.240331,0.403249 0.344261,0.619628 0.03028,0.06164 0.06133,0.122939 0.09312,0.18392 0.289178,0.563891 0.531146,1.13434 0.6918,1.747409 0.0072,0.02754 0.0145,0.05508 0.022,0.0836 0.174098,0.67536 0.284919,1.383503 0.305898,2.081811 0.0019,0.03312 0.0038,0.0659 0.0051,0.09999 0.0122,0.416361 -0.05114,0.832723 -0.103602,1.242529 -0.0051,0.04263 -0.0051,0.04263 -0.01065,0.08622 -0.220653,1.74413 -1.036055,3.409579 -2.055729,4.81931 -0.0172,0.02515 -0.03445,0.05015 -0.05209,0.07606 -0.242949,0.35407 -0.508195,0.688471 -0.803275,0.999924 -0.07213,0.07606 -0.134754,0.147856 -0.192788,0.235062 h -0.06557 c -0.0076,0.01826 -0.01527,0.03639 -0.0231,0.05541 -0.05344,0.0954 -0.120004,0.161626 -0.197049,0.239325 -0.03054,0.03066 -0.06101,0.06131 -0.09247,0.09278 -0.01591,0.01577 -0.03182,0.03155 -0.04819,0.04788 -0.04883,0.04852 -0.09737,0.09738 -0.145577,0.14622 -0.04586,0.04557 -0.04586,0.04557 -0.09246,0.09245 -0.02811,0.028 -0.05607,0.05606 -0.08525,0.08491 -0.06949,0.06098 -0.06949,0.06098 -0.135078,0.06098 -0.01085,0.03246 -0.02162,0.06491 -0.0328,0.09835 -0.05016,0.05049 -0.05016,0.05049 -0.114754,0.104582 -0.129838,0.109828 -0.255736,0.222933 -0.380327,0.33768 -0.06166,0.04919 -0.06166,0.04919 -0.127212,0.04919 -0.01084,0.03247 -0.02162,0.06491 -0.0328,0.09835 -0.05768,0.05311 -0.05768,0.05311 -0.13508,0.112779 -0.151801,0.118024 -0.151801,0.118024 -0.301965,0.238015 -0.301639,0.245227 -0.613112,0.478652 -0.924586,0.704863 -0.07935,0.0577 -0.158687,0.115731 -0.237708,0.173758 -0.259015,0.189166 -0.518029,0.370465 -0.793438,0.540943 -0.04786,0.0302 -0.09541,0.06032 -0.142947,0.09082 -0.300001,0.190805 -0.599997,0.380299 -0.908192,0.560614 -0.04459,0.02636 -0.08951,0.05278 -0.134099,0.07933 -0.426227,0.253751 -0.865571,0.48521 -1.30819,0.711423 -0.03478,0.01778 -0.03478,0.01778 -0.07017,0.03607 -0.15082,0.07705 -0.3023,0.151793 -0.455736,0.226213 -0.03124,0.01541 -0.06263,0.03082 -0.09476,0.04656 -0.806554,0.39669 -1.629499,0.737647 -2.462283,1.068771 -0.02772,0.01099 -0.05543,0.02197 -0.08394,0.03344 -0.498358,0.19769 -1.003273,0.373743 -1.511468,0.544222 -0.03605,0.0122 -0.07246,0.02443 -0.109833,0.03705 -0.221967,0.0741 -0.445901,0.141301 -0.672128,0.204573 -0.19115,0.05476 -0.380325,0.114747 -0.57049,0.174413 -0.642619,0.199986 -1.285239,0.386857 -1.937695,0.55078 -0.197708,0.05015 -0.393442,0.101959 -0.590161,0.158677 -0.243939,0.07048 -0.488522,0.131466 -0.737702,0.190478 -0.03478,0.0084 -0.03478,0.0084 -0.07018,0.01691 -0.796719,0.191789 -1.596717,0.370465 -2.399991,0.521271 -0.148849,0.02794 -0.297377,0.0564 -0.4459,0.08458 -0.301637,0.05738 -0.603275,0.114418 -0.904914,0.170808 -0.03932,0.0074 -0.07869,0.01476 -0.119013,0.02236 -0.09969,0.01866 -0.199344,0.03705 -0.299013,0.05541 -0.02728,0.005 -0.05439,0.01019 -0.08263,0.01545 -0.266554,0.04852 -0.531145,0.07737 -0.803273,0.08294 l -0.07246,0.0036 c -0.121638,0.002 -0.184259,-0.0042 -0.27836,-0.08426 -0.09246,-0.105892 -0.166551,-0.213755 -0.239669,-0.3344 -0.01418,-0.02289 -0.02823,-0.0459 -0.04292,-0.0695 -0.15311,-0.251458 -0.287536,-0.511438 -0.419671,-0.773713 -0.02573,-0.05048 -0.05146,-0.100975 -0.07737,-0.151792 -0.06294,-0.123596 -0.125577,-0.247523 -0.188199,-0.370465 -0.03105,-0.0613 -0.06197,-0.122941 -0.09312,-0.184248 -0.194095,-0.383576 -0.383604,-0.767155 -0.567208,-1.157288 -0.09868,-0.206869 -0.202953,-0.409808 -0.31213,-0.613069 -0.121312,-0.22654 -0.231151,-0.458982 -0.340982,-0.691752 -0.08525,-0.179986 -0.172459,-0.360629 -0.26295,-0.537664 -0.126841,-0.250121 -0.242249,-0.504855 -0.35733,-0.760572 -0.09508,-0.208838 -0.193774,-0.416364 -0.297705,-0.619627 -0.09049,-0.178347 -0.176395,-0.357349 -0.261966,-0.537665 C 12.642787,33.518653 12.500489,33.23015 12.354918,32.941647 12.046394,32.328578 11.745084,31.71551 11.463117,31.092606 11.34148,30.82279 11.21394,30.558222 11.079514,30.292665 10.852303,29.846797 10.630335,29.397651 10.4205,28.941949 c -0.05176,-0.111467 -0.103281,-0.222935 -0.155079,-0.334402 -0.03734,-0.08065 -0.07475,-0.1613 -0.112138,-0.241948 C 10.063493,28.17185 9.9733229,27.978752 9.8811923,27.785323 9.7517199,27.514536 9.6264762,27.241113 9.504177,26.969003 9.485252,26.927033 9.466129,26.885073 9.44714,26.84311 9.344519,26.61657 9.2491106,26.393963 9.1759919,26.154638 c 0.065572,-0.06556 0.065572,-0.06556 0.1708183,-0.07442 0.1931147,0.005 0.3836049,0.03967 0.5737686,0.07147 0.063586,0.01066 0.1275402,0.02098 0.1911502,0.03132 0.269178,0.04426 0.537703,0.09377 0.806554,0.145236 0.406555,0.07836 0.816391,0.151134 1.226224,0.224572 0.09476,0.01698 0.189503,0.0341 0.28393,0.05115 0.632783,0.114745 1.268844,0.221621 1.908188,0.318664 0.08624,0.01311 0.17246,0.0263 0.258361,0.03967 0.714749,0.110155 1.432779,0.183593 2.154086,0.249489 0.03542,0.0032 0.03542,0.0032 0.07149,0.0065 0.159675,0.01456 0.319668,0.02892 0.478687,0.04328 0.06062,0.0053 0.06062,0.0053 0.122621,0.01095 0.380324,0.03344 0.757373,0.06491 1.137699,0.07278 0.03028,6.36e-4 0.06063,0.0013 0.09181,0.002 0.09934,0.0021 0.199017,0.004 0.29836,0.006 0.03478,6.37e-4 0.06949,0.0013 0.105244,0.002 0.619669,0.01191 1.239339,0.0158 1.859008,0.01636 0.04132,9.8e-5 0.08263,1.62e-4 0.125251,2.62e-4 0.875406,0.0014 1.740976,-0.03442 2.613102,-0.110812 0.06229,-0.0053 0.06229,-0.0053 0.125573,-0.01089 0.645897,-0.05639 1.281958,-0.130483 1.921303,-0.243262 0.07737,-0.01295 0.154751,-0.02584 0.231804,-0.03869 2.12458,-0.357352 4.229489,-0.963864 6.098331,-2.058863 0.02541,-0.01492 0.05082,-0.02984 0.07704,-0.04526 0.577048,-0.344237 1.163931,-0.711422 1.629503,-1.19991 0.08525,-0.08688 0.171472,-0.171135 0.261965,-0.252768 0.836063,-0.770433 1.285241,-1.78675 1.442619,-2.894864 0.0038,-0.02377 0.0069,-0.04753 0.01052,-0.07212 0.167868,-1.21958 -0.193441,-2.360477 -0.668848,-3.475149 -0.235084,-0.547498 -0.468853,-1.091719 -0.652457,-1.65889 -0.0122,-0.03574 -0.0245,-0.0718 -0.03702,-0.108517 -0.07672,-0.246209 -0.07672,-0.246209 -0.01149,-0.37374 0.399998,-0.314405 0.773768,-0.02265 1.127864,0.232769 z"
     fill="#fdfdfd"
     id="path2"
     style="stroke-width:0.0327856" />
  <path
     d="m 20.493634,7.9379383 c 0.04004,4.26e-5 0.08,8.33e-5 0.121309,1.267e-4 1.668845,0.00324 3.278675,0.1681842 4.918012,0.4655394 0.0564,0.010072 0.0564,0.010072 0.114099,0.020327 0.934422,0.1672011 1.855729,0.3901339 2.770479,0.6360174 0.04952,0.013079 0.04952,0.013079 0.1,0.026424 0.475408,0.1265482 0.944259,0.2747335 1.41311,0.4327543 0.248197,0.083927 0.498357,0.1645778 0.747536,0.2373602 0.254427,0.073765 0.498359,0.1649048 0.744259,0.2635857 0.115081,0.0459 0.231477,0.08753 0.34754,0.127204 1.301634,0.442589 1.301634,0.442589 1.563926,0.878622 -0.0064,0.09442 -0.0064,0.09442 -0.03279,0.163922 -0.439344,0.161628 -0.868851,0.177037 -1.334422,0.176381 -0.03118,2.6e-5 -0.06228,6.5e-5 -0.09443,6.5e-5 -0.498359,-4.94e-4 -0.993439,-0.02911 -1.491796,-0.07376 -1.373765,-0.123269 -2.750808,-0.15343 -4.13113,-0.13507 -0.02432,3.17e-4 -0.04851,6.28e-4 -0.07377,9.55e-4 -1.960646,0.02788 -4.262277,0.462261 -5.704892,1.881825 -0.233441,0.243588 -0.406557,0.511436 -0.573768,0.803219 -0.01194,0.02082 -0.02387,0.04163 -0.03605,0.06328 -1.042619,1.858878 -0.57377,4.261975 -0.03805,6.196254 0.445899,1.590044 1.095078,3.127633 1.813106,4.622603 0.05806,0.119662 0.115409,0.239982 0.172462,0.360629 0.170818,0.357351 0.344259,0.7147 0.524587,1.068771 0.06688,0.132449 0.132455,0.265226 0.194424,0.399971 0.01053,0.02278 0.02104,0.04557 0.03182,0.06917 0.04332,0.118024 0.04132,0.204247 0.02451,0.327844 -0.05343,0.07245 -0.05343,0.07245 -0.131146,0.131138 -0.286559,0.04296 -0.586883,-0.01111 -0.872126,-0.05736 -0.373769,-0.05738 -0.747539,-0.102288 -1.124586,-0.141301 -0.34754,-0.03639 -0.695079,-0.07475 -1.042618,-0.124581 -0.176721,-0.02505 -0.354096,-0.04753 -0.531146,-0.06819 -0.0351,-0.004 -0.0351,-0.004 -0.07083,-0.0083 -0.114427,-0.01325 -0.22852,-0.0263 -0.344262,-0.03901 -0.337704,-0.03837 -0.672128,-0.08426 -1.006551,-0.130809 -0.308197,-0.04296 -0.616394,-0.08426 -0.924588,-0.12491 -0.02271,-0.003 -0.04523,-0.006 -0.06885,-0.0091 -0.116391,-0.01535 -0.232786,-0.03066 -0.347539,-0.0459 -1.30163,-0.171463 -1.30163,-0.171463 -1.878678,-0.252439 -0.518029,-0.07279 -1.03606,-0.141957 -1.554091,-0.211132 -0.04292,-0.0056 -0.08558,-0.0114 -0.129832,-0.01728 -0.436065,-0.05836 -0.875405,-0.116386 -1.311469,-0.173431 -0.197047,-0.02574 -0.393442,-0.0518 -0.590161,-0.07802 -0.134753,-0.01791 -0.269839,-0.03542 -0.403277,-0.05246 -0.105906,-0.01351 -0.212132,-0.02767 -0.3180315,-0.04164 -0.037018,-0.0045 -0.0741,-0.0091 -0.1124636,-0.01374 -0.1996621,-0.02708 -0.3508145,-0.05541 -0.5114696,-0.180974 -0.059667,-0.102944 -0.059667,-0.102944 -0.1022933,-0.223262 -0.01431,-0.03869 -0.02855,-0.07737 -0.04331,-0.117369 -0.017068,-0.05014 -0.034067,-0.100629 -0.050816,-0.151117 -0.012129,-0.03475 -0.024249,-0.06983 -0.036761,-0.105894 -0.1098317,-0.321279 -0.2016341,-0.645845 -0.2868805,-0.973688 -0.010521,-0.04033 -0.010521,-0.04033 -0.021299,-0.08131 -0.097372,-0.373742 -0.1901638,-0.747484 -0.273766,-1.124505 -0.00859,-0.03804 -0.017133,-0.07606 -0.025984,-0.1154 -0.1478672,-0.685195 -0.2288523,-1.376945 -0.2858989,-2.075255 -0.010014,-0.122285 -0.020468,-0.244572 -0.031053,-0.367185 -0.040039,-0.472096 -0.071475,-0.944191 -0.087542,-1.419565 -6.398e-4,-0.02463 -0.00192,-0.04918 -0.00255,-0.07475 -0.01508,-0.46226 0.043629,-0.911407 0.1009844,-1.367111 0.00712,-0.05934 0.00712,-0.05934 0.014375,-0.119662 0.067537,-0.560613 0.1652426,-1.104834 0.3134369,-1.652335 0.00642,-0.02246 0.012192,-0.04492 0.018413,-0.06786 0.2570514,-0.927799 0.6852427,-1.881824 1.2590099,-2.652259 0.026623,-0.0377 0.053127,-0.07573 0.079677,-0.113762 0.1652434,-0.237032 0.3409854,-0.462259 0.5278684,-0.681916 0.03733,-0.04492 0.07409,-0.09016 0.110486,-0.136055 0.177704,-0.222278 0.367211,-0.426197 0.567211,-0.626183 0.04984,-0.04984 0.09968,-0.100326 0.149184,-0.150481 0.316059,-0.318336 0.665569,-0.583561 1.03606,-0.832723 0.02676,-0.0181 0.05343,-0.03607 0.08098,-0.05475 C 14.732635,8.4052938 17.63098,7.92992 20.483426,7.92992 Z"
     fill="#fdfdfd"
     id="path3"
     style="stroke-width:0.0327856" />
  <path
     d="m 29.083757,14.625959 c 0.02548,0.01045 0.05082,0.02095 0.07739,0.03174 0.901636,0.373744 1.718024,0.94747 2.436055,1.603159 0.06425,0.05803 0.12983,0.11376 0.196719,0.168839 0.126554,0.108517 0.232458,0.229818 0.337704,0.357351 0.04068,0.04918 0.04068,0.04918 0.08196,0.09934 0.747537,0.921242 1.127864,1.816258 1.065569,3.016167 -0.07246,0.695031 -0.4459,1.308098 -0.918028,1.803144 -0.02207,0.02456 -0.04427,0.04919 -0.06688,0.07442 -0.613111,0.658965 -1.501633,0.872065 -2.347531,1.065493 -0.04196,0.0098 -0.04196,0.0098 -0.08491,0.01974 -0.524588,0.113762 -1.059012,0.132121 -1.593436,0.129826 -0.03009,-6.5e-5 -0.06029,-1.31e-4 -0.09115,-2.3e-4 -0.665568,-0.0025 -1.265567,-0.06687 -1.898352,-0.278012 -0.08295,-0.02745 -0.166231,-0.05344 -0.249511,-0.07933 -0.875407,-0.276046 -1.698354,-0.67536 -2.455728,-1.193354 -0.02022,-0.01367 -0.04035,-0.02738 -0.06133,-0.04163 -0.396719,-0.269815 -0.757376,-0.577005 -1.098356,-0.914684 -0.01854,-0.01826 -0.03702,-0.03639 -0.0564,-0.0554 -0.128202,-0.12917 -0.128202,-0.12917 -0.128202,-0.202936 h -0.06557 c -0.721309,-0.747485 -1.209829,-1.858875 -1.196715,-2.901421 0.03003,-0.658965 0.255736,-1.311376 0.67213,-1.819533 0.01688,-0.02144 0.03375,-0.04295 0.05113,-0.06491 0.12131,-0.148841 0.259668,-0.272766 0.406554,-0.393413 0.0449,-0.03705 0.0449,-0.03705 0.09082,-0.07475 0.681966,-0.544223 1.406552,-0.872067 2.268845,-1.006481 0.03638,-0.006 0.07246,-0.01211 0.109832,-0.01833 1.511468,-0.182938 3.11474,0.08589 4.524569,0.67536 z"
     fill="#fdfdfd"
     id="path6"
     style="stroke-width:0.0327856" />
</svg>
